<svg preserveAspectRatio="none" width="100%" height="100%" overflow="visible" style="display: block;" viewBox="0 0 40 36.2541" fill="none" xmlns="http://www.w3.org/2000/svg">
<g id="Icon_Emergencias">
<path id="Vector" d="M20.0001 26.8853C23.0784 26.8853 25.5738 24.243 25.5738 20.9836C25.5738 17.7242 23.0784 15.082 20.0001 15.082C16.9218 15.082 14.4263 17.7242 14.4263 20.9836C14.4263 24.243 16.9218 26.8853 20.0001 26.8853Z" stroke="var(--stroke-0, white)" stroke-width="3" stroke-miterlimit="10"/>
<path id="Vector_2" d="M2.62333 34.7541H38.0331" stroke="var(--stroke-0, white)" stroke-width="3" stroke-miterlimit="10"/>
<path id="Vector_3" d="M9.18015 34.7541V20.3597C9.18015 14.184 14.0255 9.18034 19.9998 9.18034C25.9768 9.18034 30.8195 14.1867 30.8195 20.3597V34.7541" stroke="var(--stroke-0, white)" stroke-width="3" stroke-miterlimit="10"/>
<path id="Vector_4" d="M19.672 0V5.2459" stroke="var(--stroke-0, white)" stroke-width="3" stroke-miterlimit="10"/>
<path id="Vector_5" d="M40 19.6721H34.7541" stroke="var(--stroke-0, white)" stroke-width="3" stroke-miterlimit="10"/>
<path id="Vector_6" d="M33.4425 5.24591L30.1638 8.52459" stroke="var(--stroke-0, white)" stroke-width="3" stroke-miterlimit="10"/>
<path id="Vector_7" d="M0 19.6721H5.2459" stroke="var(--stroke-0, white)" stroke-width="3" stroke-miterlimit="10"/>
<path id="Vector_8" d="M6.55682 5.24591L9.83551 8.52459" stroke="var(--stroke-0, white)" stroke-width="3" stroke-miterlimit="10"/>
<path id="Vector_9" d="M19.672 34.7541V26.8852" stroke="var(--stroke-0, white)" stroke-width="3" stroke-miterlimit="10"/>
</g>
</svg>
