<svg width="121.487" height="29.429" overflow="visible" style="display: block;" viewBox="0 0 121.487 29.429" fill="none" xmlns="http://www.w3.org/2000/svg">
<g id="altech">
<path id="Shape" fill-rule="evenodd" clip-rule="evenodd" d="M4.62957 27.9197C6.07964 28.9259 7.7093 29.4289 9.51856 29.4289C11.0218 29.4289 12.3588 29.1366 13.5295 28.552C14.7002 27.9673 15.5982 27.138 16.2235 26.0639V28.7355H22.0703V7.60706H16.2434V10.3195C15.6182 9.2454 14.7169 8.41263 13.5395 7.8212C12.3622 7.22976 11.0085 6.93405 9.47865 6.93405C7.696 6.93405 6.08297 7.44051 4.63955 8.45342C3.19614 9.46633 2.06202 10.8294 1.23721 12.5425C0.412405 14.2556 0 16.1319 0 18.1713C0 20.2243 0.409079 22.1108 1.22724 23.8307C2.04539 25.5506 3.17951 26.9136 4.62957 27.9197ZM13.5295 22.9231C12.7712 23.399 11.9331 23.6369 11.0152 23.6369C10.1239 23.6369 9.30238 23.4262 8.55074 23.0047C7.7991 22.5832 7.20045 21.9612 6.75479 21.1386C6.30912 20.3161 6.08629 19.327 6.08629 18.1713C6.08629 17.07 6.3058 16.1047 6.74481 15.2753C7.18382 14.4459 7.77915 13.8103 8.53079 13.3684C9.28243 12.9266 10.1172 12.7056 11.0351 12.7056C11.9398 12.7056 12.7712 12.9504 13.5295 13.4398C14.2878 13.9293 14.8865 14.5921 15.3255 15.4283C15.7645 16.2644 15.984 17.1788 15.984 18.1713C15.984 19.191 15.7645 20.1189 15.3255 20.9551C14.8865 21.7913 14.2878 22.4473 13.5295 22.9231Z" fill="var(--fill-0, white)"/>
<path id="Path" d="M26.8196 0H32.9658V28.7355H26.8196V0Z" fill="var(--fill-0, white)"/>
<path id="Path_2" d="M46.7347 28.7355C44.7126 28.7355 43.0131 28.1781 41.6362 27.0632C40.2593 25.9483 39.5709 23.7593 39.5709 20.4962V12.9504H35.5998V7.60706H39.5709V1.50918L45.717 1.46839V7.60706H51.3045V12.9504H45.717V20.7817C45.717 21.7471 45.9299 22.4507 46.3556 22.8926C46.7813 23.3344 47.3467 23.5554 48.0518 23.5554H51.3045V28.7355H46.7347Z" fill="var(--fill-0, white)"/>
<path id="Shape_2" fill-rule="evenodd" clip-rule="evenodd" d="M73.9338 19.7416C74.0136 19.089 74.0535 18.5112 74.0535 18.0081C74.0535 15.9959 73.6145 14.1434 72.7365 12.4507C71.8585 10.758 70.6179 9.41535 69.0149 8.42283C67.4118 7.43031 65.5593 6.93405 63.4574 6.93405C61.3554 6.93405 59.473 7.43711 57.8101 8.44322C56.1472 9.44934 54.8534 10.809 53.9288 12.5221C53.0043 14.2352 52.542 16.1183 52.542 18.1713C52.542 20.2107 53.0076 22.0904 53.9388 23.8103C54.8701 25.5302 56.1638 26.8932 57.8201 27.8993C59.4763 28.9055 61.3554 29.4085 63.4574 29.4085C65.2267 29.4085 66.8231 29.0516 68.2466 28.3378C69.6701 27.624 70.8408 26.6893 71.7587 25.5336C72.6766 24.3779 73.2952 23.1475 73.6145 21.8422H67.0293C66.4839 23.2834 65.2533 24.004 63.3377 24.004C62.127 24.004 61.1093 23.6403 60.2845 22.9129C59.4597 22.1856 58.9276 21.1285 58.6881 19.7416H73.9338ZM67.0693 13.7559C67.4684 14.2794 67.7012 14.8606 67.7677 15.4996H58.9276C59.2868 14.344 59.8788 13.4874 60.7036 12.93C61.5284 12.3725 62.453 12.0938 63.4773 12.0938C64.209 12.0938 64.8908 12.24 65.5227 12.5323C66.1546 12.8246 66.6701 13.2325 67.0693 13.7559Z" fill="var(--fill-0, white)"/>
<path id="Path_3" d="M87.0043 29.4085C84.929 29.4085 83.0666 28.9055 81.4169 27.8993C79.7673 26.8932 78.4835 25.5302 77.5656 23.8103C76.6477 22.0904 76.1887 20.2107 76.1887 18.1713C76.1887 16.1319 76.6477 14.2556 77.5656 12.5425C78.4835 10.8294 79.7673 9.46633 81.4169 8.45342C83.0666 7.44051 84.929 6.93405 87.0043 6.93405C88.8402 6.93405 90.4965 7.30794 91.9732 8.05573C93.4498 8.80352 94.6704 9.83003 95.6349 11.1353C96.5994 12.4405 97.2613 13.9225 97.6204 15.5812H91.3945C91.0353 14.6159 90.4699 13.9021 89.6983 13.4398C88.9267 12.9775 88.0354 12.7464 87.0243 12.7464C86.1862 12.7464 85.4046 12.9606 84.6796 13.3888C83.9546 13.8171 83.3725 14.4391 82.9335 15.2549C82.4945 16.0707 82.275 17.0428 82.275 18.1713C82.275 19.2998 82.4945 20.2787 82.9335 21.1081C83.3725 21.9374 83.9579 22.5662 84.6896 22.9945C85.4212 23.4228 86.1995 23.6369 87.0243 23.6369C88.062 23.6369 88.9633 23.382 89.7282 22.8722C90.4932 22.3623 91.0486 21.5431 91.3945 20.4147H97.6204C97.2879 22.155 96.6426 23.7049 95.6848 25.0645C94.727 26.4242 93.503 27.4881 92.0131 28.2562C90.5231 29.0244 88.8535 29.4085 87.0043 29.4085Z" fill="var(--fill-0, white)"/>
<path id="Path_4" d="M107.019 0V7.54588L106.88 9.99319C107.558 9.01426 108.436 8.25967 109.514 7.72942C110.591 7.19917 111.828 6.93405 113.225 6.93405C115.979 6.93405 118.044 7.84159 119.421 9.65668C120.798 11.4718 121.487 14.0516 121.487 17.3963V28.7355H115.341V17.5391C115.341 15.8531 115.001 14.6227 114.323 13.8477C113.644 13.0727 112.7 12.6852 111.489 12.6852C110.704 12.6852 109.969 12.9198 109.284 13.3888C108.599 13.8579 108.05 14.5173 107.638 15.3671C107.225 16.2168 107.019 17.1788 107.019 18.2529V28.7355H100.873V0H107.019Z" fill="var(--fill-0, white)"/>
</g>
</svg>
