<svg width="28.9572" height="29.5945" overflow="visible" style="display: block;" viewBox="0 0 28.9572 29.5945" fill="none" xmlns="http://www.w3.org/2000/svg">
<path id="Fill 1" fill-rule="evenodd" clip-rule="evenodd" d="M21.9477 29.5945V29.5945C25.8189 29.5945 28.9572 26.3871 28.9572 22.4306V15.0473H28.9509C28.9523 14.9637 28.9572 14.8811 28.9572 14.7972V0H14.4786C6.36624 0 -0.187874 6.81859 0.00411289 15.154C0.184902 23.0036 6.4489 29.4055 14.1295 29.5902C14.2464 29.5931 14.3624 29.5922 14.4786 29.5922V29.5945H19.6869V22.4253H14.4786V22.4321C8.79096 22.4317 4.58664 15.9421 8.58004 9.8098C8.8481 9.39815 9.19583 9.04348 9.5985 8.76939C15.6817 4.62899 22.1332 9.10813 21.9477 15.0473V29.5945Z" fill="var(--fill-0, white)"/>
</svg>
