<svg width="33" height="33" overflow="visible" style="display: block;" viewBox="0 0 33 33" fill="none" xmlns="http://www.w3.org/2000/svg">
<g id="linkedin">
<path id="Shape" fill-rule="evenodd" clip-rule="evenodd" d="M33 3.66667C33 1.64162 31.3584 0 29.3333 0H3.66667C1.64162 0 0 1.64162 0 3.66667V29.3333C0 31.3584 1.64162 33 3.66667 33H29.3333C31.3584 33 33 31.3584 33 29.3333V3.66667ZM28.4167 18.7V28.4167H23.3017V19.3783C23.3017 17.9608 22.1525 16.8117 20.735 16.8117C19.3233 16.8117 18.1867 17.9667 18.1867 19.3783V28.4167H13.0717V13.0717H18.1867V15.1067C19.0667 13.6767 20.8817 12.7233 22.44 12.7233C25.7408 12.7233 28.4167 15.3992 28.4167 18.7ZM7.11333 10.1933C7.9302 10.1933 8.71361 9.86883 9.29122 9.29122C9.86883 8.71361 10.1933 7.9302 10.1933 7.11333C10.1933 5.40833 8.81833 4.015 7.11333 4.015C5.40217 4.015 4.015 5.40217 4.015 7.11333C4.015 8.81833 5.40833 10.1933 7.11333 10.1933ZM9.66167 13.0717V28.4167H4.58333V13.0717H9.66167Z" fill="var(--fill-0, white)"/>
</g>
</svg>
